OpenSim_Sub01_CSStiffKnee_RCS.mot
version=1
nRows=63
nColumns=11
inDegrees=no
endheader
time	Top_Thigh	Med_Thigh	Bot_Thigh	Top_Shank	2nd_Top_Shank	2nd_Bot_Shank	Bot_Shank	BNOx	BNOy	BNOZ
0	1299.16292805	1240.22969464	1161.96394953	960.99990197	1060.00000820	939.97477623	919.99928353	59.38496482	-73.80970340	137.50002204
0.01000000	1299	1240	1162	961	1060	940	920	59.38000000	-73.81000000	137.50000000
0.02000000	1298.87818933	1239.78129228	1161.98625400	961.00013860	1059.99998841	940.03202975	920.00048213	59.37609178	-73.81042635	137.50033724
0.03000000	1298.79758780	1239.57960706	1161.92678473	961.00029499	1059.99997534	940.06623620	920.00074386	59.37333645	-73.81091111	137.50091360
0.04000000	1298.75499236	1239.39981992	1161.82856040	961.00044046	1059.99996319	940.09695532	920.00082652	59.37171587	-73.81136416	137.50156135
0.05000000	1298.74719998	1239.24680641	1161.69854921	961.00054633	1059.99995435	940.11852308	920.00077144	59.37121193	-73.81169539	137.50211274
0.06000000	1298.77100760	1239.12544209	1161.54371937	961.00058391	1059.99995121	940.12527546	920.00061992	59.37180650	-73.81181471	137.50240004
0.07000000	1298.82321218	1239.04060255	1161.37103909	961.00052451	1059.99995617	940.11154843	920.00041329	59.37348145	-73.81163198	137.50225551
0.08000000	1298.90061066	1238.99716333	1161.18747656	961.00033944	1059.99997164	940.07167795	920.00019288	59.37621866	-73.81105712	137.50151141
0.09000000	1299	1239	1161	961	1060	940	920	59.38000000	-73.81000000	137.50000000
0.10000000	1299.11775329	1239.05145975	1160.81519907	960.99949979	1060.00004179	939.89359633	919.99986735	59.38479272	-73.80833137	137.49744990
0.11000000	1299.24854819	1239.14377623	1160.63814929	960.99892152	1060.00009010	939.76053184	919.99979312	59.39050553	-73.80576538	137.49317508
0.12000000	1299.38663846	1239.26665472	1160.47354764	960.99837021	1060.00013616	939.61161720	919.99976687	59.39703253	-73.80197705	137.48638590
0.13000000	1299.52627791	1239.40980049	1160.32609112	960.99795084	1060.00017119	939.45766308	919.99977816	59.40426780	-73.79664136	137.47629268
0.14000000	1299.66172032	1239.56291880	1160.20047670	960.99776841	1060.00018643	939.30948016	919.99981656	59.41210542	-73.78943334	137.46210577
0.15000000	1299.78721947	1239.71571495	1160.10140138	960.99792794	1060.00017310	939.17787911	919.99987162	59.42043949	-73.78002798	137.44303549
0.16000000	1299.89702915	1239.85789419	1160.03356213	960.99853442	1060.00012244	939.07367061	919.99993292	59.42916410	-73.76810029	137.41829220
0.17000000	1299.98540315	1239.97916181	1160.00165594	960.99969284	1060.00002566	939.00766533	919.99999001	59.43817332	-73.75332528	137.38708621
0.18000000	1300.04744851	1240.07044787	1160.00941593	961.00147643	1059.99987666	938.98908828	920.00003352	59.44747344	-73.73545591	137.34872468
0.19000000	1300.08457841	1240.13173448	1160.05345171	961.00372343	1059.99968894	939.01544543	920.00006206	59.45789990	-73.71482134	137.30323025
0.20000000	1300.10103247	1240.16706088	1160.12718008	961.00616682	1059.99948482	939.07899022	920.00007775	59.47065975	-73.69200896	137.25094621
0.21000000	1300.10106361	1240.18048547	1160.22400280	961.00853905	1059.99928665	939.17195135	920.00008277	59.48696181	-73.66760738	137.19221740
0.22000000	1300.08892477	1240.17606663	1160.33732163	961.01057258	1059.99911677	939.28655748	920.00007927	59.50801490	-73.64220523	137.12738863
0.23000000	1300.06886890	1240.15786275	1160.46053832	961.01199987	1059.99899753	939.41503730	920.00006942	59.53502784	-73.61639111	137.05680473
0.24000000	1300.04514893	1240.12993221	1160.58705461	961.01255339	1059.99895129	939.54961948	920.00005538	59.56920944	-73.59075364	136.98081053
0.25000000	1300.02201780	1240.09633340	1160.71027226	961.01196559	1059.99900039	939.68253271	920.00003931	59.61176852	-73.56588144	136.89975085
0.26000000	1300.00372845	1240.06112470	1160.82359304	961.00996894	1059.99916720	939.80600565	920.00002339	59.66391390	-73.54236313	136.81397051
0.27000000	1299.99453382	1240.02836451	1160.92041868	961.00629589	1059.99947404	939.91226699	920.00000976	59.72685438	-73.52078731	136.72381433
0.28000000	1299.99868684	1240.00211120	1160.99415094	961.00067891	1059.99994328	939.99354541	920.00000059	59.80179880	-73.50174260	136.62962715
0.29000000	1300.01864746	1239.98567135	1161.03970768	960.99313326	1060.00057365	940.04380435	919.99999749	59.88933021	-73.48570555	136.53207923
0.30000000	1300.04717773	1239.97828504	1161.06020704	960.98520377	1060.00123608	940.06639021	919.99999908	59.98664712	-73.47254655	136.43360116
0.31000000	1300.07377591	1239.97782381	1161.06152689	960.97895005	1060.00175851	940.06780716	920.00000296	60.08980895	-73.46193201	136.33721594
0.32000000	1300.08793781	1239.98215817	1161.04954723	960.97643211	1060.00196886	940.05456179	920.00000673	60.19487430	-73.45352815	136.24594703
0.33000000	1300.07915922	1239.98915863	1161.03014802	960.97970993	1060.00169503	940.03316065	920.00000801	60.29790175	-73.44700123	136.16281788
0.34000000	1300.03693595	1239.99669570	1161.00920924	960.99084353	1060.00076493	940.01011031	920.00000439	60.39494988	-73.44201748	136.09085194
0.35000000	1299.95128804	1240.00269306	1160.99246494	961.01171461	1059.99902136	939.99175506	919.99999363	60.48231599	-73.43815855	136.03273822
0.36000000	1299.82429299	1240.00629714	1160.98229303	961.04010398	1059.99664972	939.98070638	919.99997676	60.56178819	-73.43306020	135.98347358
0.37000000	1299.67008576	1240.00787715	1160.97771524	961.06969159	1059.99417797	939.97584302	919.99995812	60.64064537	-73.42241230	135.93036274
0.38000000	1299.50332556	1240.00785548	1160.97760739	961.09397910	1059.99214899	939.97588140	919.99994216	60.72640513	-73.40182015	135.86037598
0.39000000	1299.33867158	1240.00665449	1160.98084530	961.10646814	1059.99110566	939.97953798	919.99993338	60.82658511	-73.36688903	135.76048356
0.40000000	1299.19078303	1240.00469656	1160.98630478	961.10066037	1059.99159084	939.98552918	919.99993623	60.94870290	-73.31322421	135.61765576
0.41000000	1299.07431911	1240.00240407	1160.99286166	961.07005743	1059.99414741	939.99257145	919.99995520	61.10027614	-73.23643097	135.41886286
0.42000000	1299.00393902	1240.00019938	1160.99939175	961.00816098	1059.99931823	939.99938123	919.99999474	61.28882242	-73.13211461	135.15107513
0.43000000	1298.99004880	1239.99845130	1161.00489435	960.91052319	1060.00734655	940.00483456	920.00005696	61.51944718	-72.99738493	134.80504426
0.44000000	1299.02005009	1239.99723893	1161.00903662	960.78378721	1060.01685495	940.00867081	920.00013107	61.78420873	-72.83748947	134.39197475
0.45000000	1299.07360251	1239.99654383	1161.01171052	960.63832878	1060.02592056	940.01091991	920.00020196	62.07077447	-72.66041447	133.92995443
0.46000000	1299.13035982	1239.99634750	1161.01280813	960.48452644	1060.03262013	940.01161198	920.00025450	62.36680848	-72.47414824	133.43707630
0.47000000	1299.16997580	1239.99663145	1161.01222158	960.33275877	1060.03503041	940.01077717	920.00027357	62.65997484	-72.28667908	132.93143337
0.48000000	1299.17210422	1239.99737717	1161.00984295	960.19340430	1060.03122812	940.00844560	920.00024406	62.93793763	-72.10599531	132.43111865
0.49000000	1299.11639886	1239.99856618	1161.00556437	960.07684160	1060.01929001	940.00464742	920.00015085	63.18836093	-71.94008523	131.95422514
0.50000000	1298.98252163	1240.00017992	1160.99927816	959.99344594	1059.99729414	939.99941290	919.99997883	63.39891221	-71.79693537	131.51884125
0.51000000	1298.76092828	1240.00214270	1160.99118116	959.94925125	1059.96508664	939.99297136	919.99972675	63.56175392	-71.68216790	131.13692995
0.52000000	1298.47414704	1240.00420891	1160.98237498	959.93739162	1059.92776713	939.98614346	919.99943455	63.68240474	-71.59437965	130.80225349
0.53000000	1298.15063582	1240.00610156	1160.97412850	959.94861621	1059.89140653	939.97985921	919.99914981	63.76885270	-71.53086860	130.50520904
0.54000000	1297.81885255	1240.00754367	1160.96771062	959.97367415	1059.86207574	939.97504862	919.99892008	63.82908583	-71.48893268	130.23619378
0.55000000	1297.50725514	1240.00825823	1160.96439022	960.00331457	1059.84584569	939.97264168	919.99879291	63.87109217	-71.46586987	129.98560490
0.56000000	1297.24430153	1240.00796825	1160.96543619	960.02828661	1059.84878730	939.97356842	919.99881588	63.90285975	-71.45897812	129.74383957
0.57000000	1297.05844964	1240.00639673	1160.97211741	960.03933943	1059.87697148	939.97875882	919.99903654	63.93237661	-71.46555538	129.50129498
0.58000000	1296.97815738	1240.00326669	1160.98570278	960.02722214	1059.93646914	939.98914289	919.99950246	63.96763079	-71.48289962	129.24836831
0.59000000	1297.03157242	1239.99830952	1161.00742377	959.98283297	1060.03318001	940.00562262	920.00025985	64.01656984	-71.50830335	128.97551160
0.60000000	1297.22283765	1239.99190670	1161.03561690	959.90860336	1060.15975888	940.02693116	920.00125120	64.08401080	-71.53863759	128.67742086
0.61000000	1297.51540618	1239.98554159	1161.06371157	959.82651449	1060.28640943	940.04812541	920.00224313	64.16946412	-71.57005890	128.35598593
0.62000000	1297.86878969	1239.98080430	1161.08466185	959.76044117	1060.38116059	940.06390615	920.00298523	64.27192629	-71.59865467	128.01379351
